<svg width="37" height="38" viewBox="0 0 37 38" fill="none" xmlns="http://www.w3.org/2000/svg">
<path d="M18.5 0C8.325 0 0 8.55 0 19C0 29.45 8.325 38 18.5 38C28.675 38 37 29.45 37 19C37 8.55 28.7675 0 18.5 0ZM27.0115 27.455C26.6415 28.0234 25.994 28.215 25.4375 27.835C21.09 25.08 15.6325 24.5084 9.15596 26.0284C8.51154 26.2216 7.955 25.745 7.77 25.175C7.585 24.5084 8.0475 23.94 8.6025 23.75C15.6325 22.1334 21.7375 22.8 26.5475 25.84C27.195 26.125 27.286 26.8834 27.0115 27.455ZM29.2315 22.23C28.7675 22.895 27.935 23.18 27.286 22.705C22.2925 19.57 14.7075 18.62 8.88 20.52C8.14154 20.71 7.3075 20.33 7.1225 19.57C6.9375 18.81 7.3075 17.9534 8.0475 17.7634C14.8 15.675 23.125 16.7216 28.86 20.33C29.4165 20.6166 29.6925 21.565 29.2315 22.23ZM29.4165 16.91C23.495 13.3 13.5975 12.92 7.955 14.7266C7.03 15.01 6.105 14.44 5.8275 13.585C5.55 12.6334 6.105 11.685 6.9375 11.3984C13.505 9.40342 24.3275 9.78342 31.174 13.965C32.005 14.44 32.2825 15.58 31.82 16.435C31.359 17.1016 30.2475 17.3834 29.4165 16.91Z" fill="black"/>
</svg>
